<?xml version="1.0" encoding="utf-8"?>
<!DOCTYPE svg PUBLIC "-//W3C//DTD SVG 1.0//EN" "http://www.w3.org/TR/2001/REC-SVG-20010904/DTD/svg10.dtd">
<svg version="1.0" xmlns="http://www.w3.org/2000/svg" width="1200px" height="1200px" viewBox="0 0 1200 1200" preserveAspectRatio="xMidYMid meet">
 <g fill="#000000">
  <path d="M568.5 1172.4 c-100.9 -6.5 -193.3 -36.2 -275.5 -88.6 -98.1 -62.5 -175.2 -153.3 -220.5 -259.7 -15.9 -37.4 -28.8 -80.2 -35.9 -119.1 -4.1 -22.7 -4.1 -23 -1.9 -23 1.7 0 2.2 1.1 3.2 7.8 1.8 11.4 2.1 12.2 4.2 12.2 1.2 0 1.9 0.7 1.9 2 0 3.4 5.8 28.6 10.5 45.7 57.2 206.2 227.5 364.1 437.5 405.7 55.9 11 114.3 13.4 171 7 176.7 -20 334.4 -123.3 426 -278.9 10.5 -17.9 28.1 -53.7 35.9 -73.1 46.6 -116.3 53.7 -240.8 20.5 -360.4 -33.4 -120.4 -106.9 -227.6 -207.9 -303.2 -47.4 -35.5 -101.6 -63.9 -159.5 -83.6 -9.6 -3.3 -21.4 -7 -26.2 -8.2 -5.4 -1.4 -8.8 -2.8 -8.8 -3.6 0 -0.7 -1.7 -1.8 -3.7 -2.3 -14.6 -3.9 -37.5 -9.2 -46.5 -10.7 -9.4 -1.6 -10.8 -2.1 -10.8 -3.7 0 -2.2 -0.7 -2.3 23 1.9 32.6 5.8 77.6 18.9 109 31.7 88.6 36.1 165.6 92.2 226.3 165.1 66.9 80.4 110.3 176.6 126.1 279.6 5 32.6 6 47.8 6 87 0 39.2 -1 54.4 -6 87 -28 183.5 -143.9 342.3 -310.4 425.5 -63 31.6 -125.8 49.9 -197.5 57.6 -18.3 1.9 -73.3 3.4 -90 2.3z"/>
  <path d="M566 984 c-29.4 -2.6 -67.5 -10.6 -93.9 -19.9 -56.4 -19.9 -104 -49.8 -145.6 -91.6 -30.8 -30.9 -52.6 -61.2 -72.1 -100.7 l-6.8 -13.6 -5.7 2.9 c-14.4 7.2 -30.3 10.9 -49.9 11.6 -13.8 0.5 -14.6 0.4 -16.7 -1.6 -1.9 -1.8 -2.3 -3.3 -2.3 -8.1 0 -8.1 1.9 -10 9.8 -10 15 -0.1 32.2 -4 45.8 -10.4 27.2 -12.9 46.4 -34.4 56.3 -63.1 1.8 -4.9 4.1 -9.8 5.2 -10.7 3.1 -2.6 11.8 -2.4 14.7 0.2 8.2 7.7 -6.2 43.4 -26.1 64.6 l-6.2 6.6 3.9 7.2 c6.5 12 23.8 37.4 35.2 51.6 12 14.9 35 38.5 48.9 50.1 58.3 48.6 122.4 76.6 199 86.6 18.4 2.4 61.8 2.4 81 0 118.5 -15 219.1 -80.7 279.7 -182.5 3.7 -6.4 6.8 -12 6.8 -12.5 0 -0.5 -2.7 -3.8 -6 -7.3 -19.6 -21 -34 -56.8 -25.8 -64.4 2.7 -2.5 11.2 -2.8 14.5 -0.5 1.3 0.9 3.2 4.7 4.9 9.7 3.2 9.8 8.1 20 13.7 28.3 5.2 7.7 19.4 21.9 27.6 27.4 16 10.9 35.8 17.5 56 18.7 14.1 0.9 15.1 1.6 15.1 10.4 0 4.8 -0.4 6.3 -2.3 8.1 -2.1 2 -2.9 2.1 -16.7 1.6 -19.6 -0.7 -35.5 -4.4 -49.9 -11.6 l-5.7 -2.9 -6.8 13.6 c-32.9 66.4 -83.3 121.2 -145.3 158.2 -47.9 28.6 -96.9 45.5 -152.8 52.6 -14.4 1.8 -66.1 2.7 -81.5 1.4z"/>
  <path d="M27 618.1 c0 -7.4 0.2 -8.1 2 -8.1 2.3 0 3.3 4.1 2.8 11 -0.2 3.8 -0.7 4.6 -2.5 4.8 -2.2 0.3 -2.3 0.1 -2.3 -7.7z"/>
  <path d="M27 585.3 c0 -12.3 0.8 -16.3 3.1 -16.3 1.7 0 1.9 0.8 1.9 6.4 0 3.4 -0.3 9.1 -0.6 12.5 -0.6 5 -1 6.1 -2.5 6.1 -1.7 0 -1.9 -0.9 -1.9 -8.7z"/>
  <path d="M28 562.1 c0 -5.7 1.2 -9.1 3.1 -9.1 1.7 0 1.9 0.8 1.9 6 0 5.7 -0.1 6 -2.5 6 -2.1 0 -2.5 -0.5 -2.5 -2.9z"/>
  <path d="M29.4 545.3 c1.4 -12.5 1.6 -13.3 3.8 -13.3 2 0 2.1 0.4 1.5 6.8 -0.4 3.7 -0.7 7.9 -0.7 9.5 0 2.2 -0.4 2.7 -2.6 2.7 -2.6 0 -2.6 -0.1 -2 -5.7z"/>
  <path d="M31 530.3 c0 -2.4 5.6 -35.9 7.6 -45.8 26.7 -128 94.7 -241.4 194.9 -324.9 91.8 -76.5 205.1 -122.3 324.3 -131.2 l9.2 -0.7 0 2.5 c0 2.5 -0.1 2.5 -11.2 3.2 -22.5 1.3 -55.9 6.5 -83 12.7 -6.9 1.6 -13.8 2.9 -15.2 2.9 -1.4 0 -2.6 0.4 -2.6 0.9 0 0.5 -1.8 1.2 -4 1.6 -2.2 0.4 -4.2 1.1 -4.6 1.6 -0.3 0.5 -2.3 0.9 -4.5 0.9 -3.2 0 -3.9 0.3 -3.9 2 0 2.3 -3.6 3.5 -8.1 2.6 -1.6 -0.3 -3.8 -0.1 -4.7 0.4 -0.9 0.6 -7.3 3 -14.2 5.4 -16.3 5.6 -23 8.7 -23 10.3 0 0.8 -1.3 1.3 -3.5 1.3 -2 0 -5.8 1.1 -8.5 2.5 -2.7 1.4 -6.1 2.5 -7.5 2.5 -1.4 0 -2.5 0.4 -2.5 0.9 0 0.5 -1.8 1.6 -4 2.5 -2.2 0.9 -4 2.2 -4 2.9 0 1.4 -18.1 10.7 -20.9 10.7 -4.6 0 -54.1 30.8 -74.2 46.1 -4.3 3.2 -8.3 5.9 -8.8 5.9 -0.6 0 -1.6 0.9 -2.3 2 -0.7 1.1 -1.8 2 -2.5 2 -0.7 0 -1.8 0.9 -2.5 2 -0.7 1.1 -1.8 2 -2.5 2 -0.7 0 -1.8 0.9 -2.5 2 -0.7 1.1 -1.8 2 -2.5 2 -0.7 0 -2.2 1.3 -3.5 3 -1.2 1.6 -2.8 3 -3.5 3 -0.7 0 -2.2 1.4 -3.5 3 -1.2 1.6 -2.7 3 -3.4 3 -0.7 0 -3 2 -5.2 4.5 -2.2 2.5 -4.4 4.5 -4.8 4.5 -1.4 0 -32.4 31.3 -32.4 32.7 0 0.6 -2 2.8 -4.5 4.9 -2.5 2 -4.5 4.2 -4.5 4.9 0 0.7 -1.6 2.5 -3.5 3.9 -1.9 1.5 -3.5 3.3 -3.5 4 0 0.8 -1.1 2.1 -2.5 3 -1.4 0.9 -2.5 2.1 -2.5 2.6 0 0.6 -1.8 2.9 -4 5.1 -2.2 2.3 -4 4.8 -4 5.6 0 0.7 -0.7 1.6 -1.5 1.9 -0.8 0.4 -1.5 1 -1.5 1.5 0 0.5 -1.6 2.6 -3.6 4.6 -2 2 -4.3 5.1 -5 6.9 -0.8 1.9 -1.9 3.4 -2.4 3.4 -0.6 0 -1.6 1.2 -2.2 2.8 -0.7 1.5 -2.3 3.7 -3.5 4.9 -1.3 1.2 -2.3 2.9 -2.3 3.8 0 0.8 -0.4 1.5 -1 1.5 -0.5 0 -1 0.7 -1 1.5 0 0.8 -0.4 1.5 -1 1.5 -0.5 0 -1 0.7 -1 1.5 0 0.8 -0.4 1.5 -1 1.5 -0.5 0 -1 0.4 -1 0.9 0 0.6 -1.1 2.2 -2.5 3.7 -1.4 1.5 -2.5 3.5 -2.5 4.5 0 1.1 -0.4 1.9 -1 1.9 -0.5 0 -1 0.6 -1 1.4 0 0.8 -0.7 1.6 -1.5 2 -0.8 0.3 -1.5 1.5 -1.5 2.6 0 1.1 -0.4 2 -0.9 2 -1.1 0 -10.4 15.8 -19.4 33 -28.5 54.1 -49.4 118.9 -58.3 179.8 -1.7 11.6 -1.9 12.2 -4.1 12.2 -1.3 0 -2.3 -0.3 -2.3 -0.7z"/>
  <path d="M413.1 515.4 c-23.5 -6.3 -44.6 -33.6 -53.6 -69.4 -4 -16.3 -4.9 -24.5 -4.9 -46 0 -21.5 0.9 -29.8 4.9 -46 6.5 -25.8 19.5 -48 34.8 -59.5 12.7 -9.6 20.1 -11.9 36.6 -11.3 17.5 0.7 26.4 4.8 39.6 18.4 14.6 15 25.1 38 30 65.4 2.3 13.1 3.1 38.9 1.6 53 -5.2 49.5 -27.6 86.4 -58 95.4 -6.9 2 -23.5 2 -31 0z"/>
  <path d="M754.4 515 c-11.2 -3.6 -22.8 -12.4 -31.3 -23.8 -18.3 -24.8 -27.2 -58.6 -25.8 -98.6 0.8 -23.2 4.5 -41.6 11.9 -59.3 4 -9.8 12.1 -23 18.5 -30.2 6.7 -7.5 18.5 -15.5 26.9 -18.1 8.4 -2.6 24.5 -2.8 32.5 -0.4 28.1 8.4 49.6 41.1 57 86.9 1.7 10.5 1.7 46.5 0.1 57 -7.3 45.4 -29.1 78.6 -57.1 86.9 -7.8 2.3 -24.7 2.1 -32.7 -0.4z"/>
  <path d="M587 33 c0 -0.6 -3.7 -1 -9 -1 -8.1 0 -9 -0.2 -9 -1.9 0 -2.4 4 -3.1 17.8 -3.1 9.7 0 10.2 0.1 10.2 2.1 0 1.1 -0.6 2.7 -1.4 3.5 -1.6 1.6 -8.6 1.9 -8.6 0.4z"/>
  <path d="M607.7 31.4 c-0.4 -0.4 -0.7 -1.6 -0.7 -2.6 0 -1.7 0.8 -1.8 9.8 -1.6 8.9 0.3 9.7 0.5 9.7 2.3 0 1.8 -0.8 2 -9 2.3 -5 0.1 -9.4 0 -9.8 -0.4z"/>
 </g>
 <g fill="#111111">
  <path d="M582 983.8 c0 -0.7 1.1 -1.8 2.5 -2.5 1.4 -0.6 2.5 -0.7 2.5 -0.2 0 0.5 0.7 0.9 1.5 0.9 0.8 0 1.5 0.7 1.5 1.5 0 1.1 -1.1 1.5 -4 1.5 -2.5 0 -4 -0.5 -4 -1.2z"/>
  <path d="M608 983.5 c0 -0.8 0.7 -1.5 1.5 -1.5 0.8 0 1.5 -0.4 1.5 -1 0 -0.5 0.7 -1 1.5 -1 0.8 0 1.5 0.5 1.5 1 0 0.6 0.7 1 1.5 1 0.8 0 1.5 0.7 1.5 1.5 0 1.1 -1.2 1.5 -4.5 1.5 -3.3 0 -4.5 -0.4 -4.5 -1.5z"/>
  <path d="M49.6 745.5 c-0.3 -0.8 -1.2 -1.5 -2.1 -1.5 -0.8 0 -1.5 -0.5 -1.5 -1.1 0 -0.6 0.7 -0.9 1.4 -0.6 1 0.4 1.3 0.1 0.9 -0.9 -0.3 -0.7 -1.1 -1.4 -1.9 -1.4 -0.8 0 -1.4 -0.5 -1.4 -1.1 0 -0.6 0.7 -0.9 1.4 -0.6 1 0.4 1.3 0.1 0.9 -0.9 -0.3 -0.7 -1.1 -1.4 -1.9 -1.4 -0.8 0 -1.4 -0.5 -1.4 -1.1 0 -0.6 0.7 -0.9 1.4 -0.6 1 0.4 1.3 0.1 0.9 -0.9 -0.3 -0.7 -1.1 -1.4 -1.9 -1.4 -0.8 0 -1.4 -0.5 -1.4 -1.1 0 -0.6 0.7 -0.9 1.5 -0.5 0.8 0.3 1.5 0.1 1.5 -0.5 0 -0.6 -0.9 -1.3 -2 -1.6 -1.1 -0.3 -2 -1 -2 -1.5 0 -0.6 0.7 -0.8 1.5 -0.4 0.8 0.3 1.5 0.1 1.5 -0.5 0 -0.6 -0.9 -1.3 -2 -1.6 -1.1 -0.3 -2 -1.2 -2 -2 0 -0.9 0.6 -1.3 1.5 -0.9 0.8 0.3 1.5 0.1 1.5 -0.4 0 -0.6 -0.9 -1 -2 -1 -1.2 0 -2 -0.7 -2 -1.6 0 -1 0.6 -1.4 1.5 -1 0.8 0.3 1.5 0.1 1.5 -0.4 0 -0.6 -0.9 -1 -2 -1 -1.4 0 -2 -0.7 -2 -2.1 0 -1.5 0.5 -1.9 1.5 -1.5 0.8 0.3 1.5 0.1 1.5 -0.4 0 -0.6 -0.9 -1 -2 -1 -1.4 0 -2 -0.7 -2 -2.1 0 -1.5 0.5 -1.9 1.5 -1.5 0.9 0.3 1.5 0 1.5 -0.8 0 -0.9 -0.7 -1.2 -2 -0.9 -1.1 0.3 -2 0.1 -2 -0.5 0 -0.6 -1.1 -7.1 -2.5 -14.5 -4.5 -24.6 -8.2 -65.6 -6.2 -68.9 0.8 -1.1 0.7 -3.3 -0.3 -7.2 -1 -4.2 -1.1 -8.6 -0.4 -18.3 0.4 -7.1 0.7 -17.6 0.6 -23.5 -0.2 -7.2 0.1 -10.8 0.8 -10.8 0.8 0 0.9 -2.2 0.4 -7 -0.5 -5.1 -0.3 -7 0.5 -7 0.8 0 1 -1.5 0.5 -5 -0.4 -3.4 -0.3 -5 0.5 -5 0.7 0 0.9 -1.5 0.4 -4.6 -0.3 -2.7 -0.2 -4.9 0.4 -5.2 0.5 -0.4 1.7 -5.9 2.7 -12.2 10.4 -70.8 35.2 -141.7 70.8 -202.7 3.3 -5.7 6.4 -10.3 7 -10.3 0.5 0 0.7 -0.4 0.3 -1 -0.3 -0.5 0.3 -1.8 1.5 -3 1.1 -1.1 2 -2.2 2 -2.5 0 -0.3 0 -1 0 -1.6 0 -0.5 0.4 -0.8 0.8 -0.5 0.5 0.3 0.9 0 0.9 -0.7 0 -1.7 3.3 -6.7 4.5 -6.7 0.5 0 0.6 -0.5 0.3 -1 -0.3 -0.6 0.1 -1.3 0.9 -1.6 0.9 -0.3 1.3 -1 1 -1.5 -0.3 -0.5 0.2 -1.2 1 -1.5 0.9 -0.3 1.3 -1 1 -1.5 -0.3 -0.5 0.2 -1.2 1 -1.5 0.9 -0.3 1.4 -1 1.1 -1.4 -0.2 -0.4 0.8 -2 2.2 -3.6 1.5 -1.6 2.7 -3.2 2.5 -3.6 -0.1 -0.4 1.2 -2.1 2.9 -3.7 1.7 -1.7 2.8 -3.1 2.4 -3.1 -1.1 0 5.9 -9.1 7.8 -10.1 0.9 -0.6 1.5 -1.4 1.2 -1.9 -0.3 -0.5 0.4 -1.4 1.5 -2 1.1 -0.6 1.8 -1.4 1.6 -1.9 -0.3 -0.4 1.4 -2.7 3.7 -5.2 2.2 -2.4 4 -4.7 3.9 -5.1 -0.1 -0.4 1.2 -1.7 2.8 -3 1.7 -1.2 3 -2.7 3 -3.4 0 -0.7 1.6 -2.5 3.5 -3.9 1.9 -1.5 3.3 -3.1 3.2 -3.6 -0.1 -0.5 2.1 -3 4.8 -5.5 2.8 -2.5 4.3 -4.2 3.5 -3.8 -0.8 0.3 6.6 -7.5 16.5 -17.5 9.9 -9.9 18.1 -18.1 18.3 -18.1 0.2 0 0 0.6 -0.4 1.3 -0.4 0.6 1.4 -1.2 4 -4 2.6 -2.9 5.1 -5.2 5.5 -5 0.4 0.1 2 -1.3 3.5 -3 1.5 -1.8 3.1 -3.2 3.5 -3 0.4 0.1 2 -1.3 3.6 -3.1 1.5 -1.8 3 -3.1 3.3 -2.8 0.2 0.3 1.4 -0.6 2.4 -2 1.1 -1.4 2.3 -2.3 2.5 -2 0.3 0.3 1.5 -0.6 2.5 -2 1.1 -1.4 2.3 -2.3 2.6 -2 0.3 0.3 1.1 -0.3 1.8 -1.3 0.7 -1 2.3 -2.1 3.4 -2.4 1.6 -0.4 2 0 2 1.7 0 1.6 -2.6 4.3 -9.2 9.7 -5.1 4.1 -9.7 7.6 -10.2 7.8 -0.5 0.2 -2.1 1.7 -3.4 3.2 -1.3 1.6 -2.8 2.9 -3.2 2.9 -0.5 0 -11.1 10 -23.6 22.2 -12.4 12.3 -23.5 22.4 -24.5 22.6 -1.2 0.2 -1.9 1.2 -1.9 2.6 0 2.3 -3.7 6.6 -5.8 6.6 -0.7 0 -1.2 0.8 -1.2 1.8 0 2.1 -2.9 5.2 -4.8 5.2 -0.7 0 -1.2 0.9 -1.2 1.9 0 1.1 -1.1 2.8 -2.4 3.8 -1.3 1 -2.6 2.8 -3 4 -0.4 1.2 -2.2 3.5 -4 5.1 -1.8 1.5 -3.5 3.6 -3.9 4.5 -0.3 0.9 -1.1 1.7 -1.6 1.7 -0.5 0 -1.1 1 -1.5 2.3 -0.3 1.3 -2.4 4.3 -4.6 6.7 -2.2 2.4 -4 4.9 -4 5.6 0 0.7 -1.1 2.1 -2.5 3.2 -1.4 1.1 -2.5 2.5 -2.5 3.1 0 0.6 -1.8 3.4 -3.9 6.2 -2.2 2.9 -4.5 6.4 -5.2 7.8 -0.7 1.4 -2.8 4.7 -4.6 7.2 -1.8 2.6 -3.3 5.1 -3.3 5.7 0 0.5 -0.6 1.5 -1.4 2.1 -0.8 0.7 -1.7 2.3 -2 3.7 -0.4 1.4 -3.5 7.6 -7 13.7 -37.3 65.8 -61.7 140.5 -70 214.7 -4.1 37 -4.6 84.4 -1.1 117.5 2.9 27.9 7 53.3 12.1 74.4 1.9 7.9 3.4 15.4 3.4 16.7 0 2.7 -1.5 3.2 -2.4 0.9z"/>
  <path d="M306 111.5 c0 -0.8 3.3 -3.3 7.3 -5.7 3.9 -2.3 7.5 -4.6 7.8 -5.1 0.3 -0.5 0.9 -0.8 1.3 -0.8 0.9 0.2 6.8 -2.9 9.5 -5.1 1.6 -1.2 2.8 -1.5 3.4 -0.9 0.7 0.7 1.7 0.6 2.9 0 2.6 -1.4 3.4 -0.4 1.9 2.4 -1.7 3.2 -26.7 16.7 -30.9 16.7 -2.1 0 -3.2 -0.5 -3.2 -1.5z"/>
  <path d="M351.5 88.1 c-0.3 -0.5 0.4 -1.3 1.6 -1.6 1.7 -0.6 1.8 -0.9 0.8 -1.6 -0.9 -0.5 0.1 -1.4 3.5 -2.9 2.7 -1.1 5.4 -2.7 6 -3.4 1.4 -1.7 4.6 -2.8 4.6 -1.6 0 0.6 3.1 -0.5 6.8 -2.4 5.3 -2.7 7.2 -3.2 8.6 -2.4 1.4 0.8 1.7 0.7 1.2 -0.1 -0.9 -1.4 8.2 -5.6 24.4 -11.1 6.9 -2.4 13.3 -5 14.2 -5.8 0.9 -0.8 2.2 -1.1 2.7 -0.7 0.6 0.3 1.1 0.1 1.1 -0.4 0 -1.6 2.6 -1.3 4 0.3 0.6 0.8 1.8 1.2 2.7 0.9 0.9 -0.4 1.1 -0.8 0.4 -1.2 -2.1 -1.3 0.8 -3.5 4.9 -3.5 2.3 -0.1 4.4 -0.7 4.9 -1.5 0.5 -0.8 1.6 -1.1 2.5 -0.8 0.9 0.4 1.6 0.1 1.6 -0.4 0 -0.6 0.9 -0.9 2 -0.6 1 0.3 2.1 0 2.2 -0.5 0.2 -0.6 1.8 -1.1 3.6 -1.2 1.8 0 3.2 -0.5 3.2 -1 0 -0.4 1.1 -0.5 2.5 -0.2 1.6 0.4 2.5 0.2 2.5 -0.5 0 -0.6 0.9 -0.9 2 -0.6 1.1 0.3 2 0.1 2 -0.5 0 -0.6 0.9 -0.8 2 -0.5 1.1 0.3 2 0.1 2 -0.5 0 -0.6 1.1 -0.7 2.5 -0.4 1.6 0.4 2.5 0.2 2.5 -0.5 0 -0.6 0.9 -0.9 2 -0.6 1.1 0.3 2 0.1 2 -0.5 0 -0.6 1.1 -0.7 2.5 -0.4 1.6 0.4 2.5 0.2 2.5 -0.5 0 -0.7 1.1 -0.9 3 -0.6 1.9 0.4 3 0.2 3 -0.4 0 -0.7 1 -0.9 2.5 -0.5 1.5 0.4 2.5 0.2 2.5 -0.5 0 -0.7 1.1 -0.8 3 -0.4 2 0.4 3 0.3 3 -0.5 0 -0.8 0.9 -1 2.5 -0.6 1.6 0.4 2.5 0.2 2.5 -0.5 0 -0.7 1.2 -0.9 3.5 -0.5 2.4 0.5 3.5 0.3 3.5 -0.5 0 -0.7 1.1 -0.9 3.5 -0.5 2.3 0.5 3.5 0.3 3.5 -0.4 0 -0.8 1.3 -1 4 -0.5 2.8 0.5 4 0.3 4 -0.5 0 -0.9 1.3 -1 4.5 -0.6 3.1 0.5 4.5 0.4 4.5 -0.4 0 -0.8 1.7 -0.9 5.5 -0.5 3.9 0.5 5.5 0.4 5.5 -0.4 0 -0.9 1.9 -1 7 -0.5 4.7 0.4 7 0.3 7 -0.4 0 -0.7 4.8 -0.9 15 -0.5 11 0.4 15 0.3 15 -0.5 0 -1.7 15.2 -1.6 16.8 0 1 1 1.5 1 2.2 -0.2 0.7 -1 1 -1.1 1 -0.2 0 1.4 8 1.7 9.6 0.4 0.5 -0.5 6.8 -0.5 13.9 0 34.1 2.1 64.6 7.3 104.8 17.9 2.4 0.6 3.7 1.6 3.8 2.7 0 1 0.3 1.2 0.6 0.4 0.7 -1.7 2.3 -1.5 2.3 0.3 0 0.8 0.5 1.5 1 1.5 0.6 0 1 -0.4 1 -1 0 -1.5 3 -1.2 3.6 0.4 0.8 2 6.4 4 6.4 2.3 0 -0.8 0.3 -0.8 0.8 -0.2 0.4 0.6 1.9 1.6 3.5 2.2 1.5 0.7 2.7 1.7 2.7 2.3 0 1.5 -7.6 1.2 -9.2 -0.4 -0.8 -0.7 -2.9 -1.6 -4.8 -1.8 -1.9 -0.3 -12.5 -2.6 -23.5 -5.2 -87.4 -20.6 -172.3 -20.8 -258.6 -0.6 -27.6 6.5 -47.2 12.5 -70.4 21.5 -6.6 2.6 -14 5.3 -16.5 6.2 -2.5 0.8 -4.9 1.9 -5.5 2.3 -0.5 0.5 -5.7 2.9 -11.4 5.4 -10 4.4 -15.4 5.6 -16.6 3.7z"/>
 </g>
 <g fill="#f2f200">
  <path d="M559.5 1167.9 c-110.2 -8.4 -212.5 -46.4 -299.1 -111.2 -93.1 -69.5 -162.2 -164.2 -199.3 -273.1 -15.8 -46.2 -25.3 -93.6 -29.1 -145.1 -1.5 -21.2 -1.4 -24.5 0.9 -24.5 1.6 0 2.1 1 2.6 5.8 0.9 7.8 0.8 7.7 5.7 10.3 2.5 1.4 4.4 3.3 4.6 4.4 0.1 1.1 1.6 2.8 3.2 3.7 1.7 0.9 3 2.6 3 3.6 0 1 1.1 2.4 2.5 3 1.4 0.6 2.5 2 2.5 3 0 2.3 11.8 8.2 16.5 8.2 3.4 0 3.5 -0.1 3.5 -4 0 -3.8 0.2 -4 3 -4 2.8 0 3 -0.2 3 -4 0 -3.9 0.1 -4 3.3 -4 3.2 0 3.2 -0.1 2.9 -4 -0.4 -4 -0.4 -4 3.2 -4 3.5 0 3.6 -0.1 3.6 -3.9 l0 -3.9 5.5 -0.7 c6.9 -0.8 12.3 0.8 13.5 4 0.7 1.8 2.6 2.9 7.9 4.6 5.3 1.7 7.1 2.8 7.3 4.3 0.2 1.3 1.4 2.3 3.6 2.8 2.2 0.6 3.2 1.5 3.2 2.7 0 1.3 1 2.2 3.1 2.6 1.8 0.4 3.5 1.6 4.1 3 0.7 1.5 2.2 2.5 4.4 3 3.1 0.5 3.4 0.9 3.4 4 0 3.1 0.4 3.5 3.7 4.5 2.1 0.5 5.5 1.3 7.6 1.6 2.7 0.5 3.7 1.1 3.7 2.5 0 1.3 1 2 3.6 2.5 2.3 0.4 3.8 1.3 4.1 2.5 0.5 1.9 1.1 2.1 14.8 4.3 25.7 4.3 59.2 6.4 80.6 5.1 l12.6 -0.7 1.2 -3.9 c0.7 -2.2 1.8 -3.9 2.6 -3.9 0.8 0 1.5 -0.6 1.5 -1.4 0 -2 2.3 -2.6 9.6 -2.6 6.2 0 6.4 0.1 6.4 2.5 0 1.8 0.5 2.5 2 2.5 1.3 0 2 0.7 2 2 0 1.1 0.3 2 0.8 2 3.1 0 32.4 -5.7 44.2 -8.6 163.9 -40.6 289.5 -175.2 318.4 -341.2 8.6 -48.9 8.2 -100.6 -1 -146.3 -0.3 -1.5 -1.3 -2.9 -2.3 -3.2 -1.2 -0.3 -2.1 -1.8 -2.5 -4.1 -0.5 -2.6 -1.2 -3.6 -2.5 -3.6 -1.4 0 -2 -1 -2.5 -3.7 -0.3 -2.1 -1.1 -5.5 -1.6 -7.6 -1 -3.3 -1.4 -3.7 -4.5 -3.7 -3.1 0 -3.5 -0.3 -4 -3.4 -0.5 -2.2 -1.5 -3.7 -3 -4.4 -1.4 -0.6 -2.6 -2.3 -3 -4.1 -0.4 -2.1 -1.3 -3.1 -2.6 -3.1 -1.2 0 -2.1 -1 -2.7 -3.2 -0.5 -2.2 -1.5 -3.4 -2.8 -3.6 -1.5 -0.2 -2.6 -2 -4.3 -7.3 -1.7 -5.3 -2.8 -7.2 -4.6 -7.9 -3.2 -1.2 -4.8 -6.6 -4 -13.5 l0.7 -5.5 3.9 0 c3.8 0 3.9 -0.1 3.9 -3.6 0 -3.6 0 -3.6 4 -3.2 3.9 0.3 4 0.3 4 -2.9 0 -3.2 0.1 -3.3 4 -3.3 3.8 0 4 -0.2 4 -3 0 -2.8 0.2 -3 4 -3 3.9 0 4 -0.1 4 -3.5 0 -4.7 -5.9 -16.5 -8.2 -16.5 -1 0 -2.4 -1.1 -3 -2.5 -0.6 -1.4 -2 -2.5 -3 -2.5 -1 0 -2.7 -1.3 -3.6 -3 -0.9 -1.6 -2.6 -3.1 -3.7 -3.2 -1.1 -0.2 -3 -2.1 -4.4 -4.6 -2.6 -4.9 -2.5 -4.8 -10.3 -5.7 -5 -0.6 -5.8 -0.9 -5.8 -2.7 0 -2 0.3 -2.1 13.8 -1.4 79.4 4 152.7 23.1 223.7 58.1 99.1 48.9 180.9 124.3 237.3 218.9 53.2 88.9 80.2 187.3 80.2 291.6 0 89.1 -19 171 -58 250.5 -56.4 114.8 -148.2 206.2 -263 261.8 -66.3 32.2 -133.8 50.1 -209.5 55.7 -16.2 1.2 -62.9 1.1 -79 -0.1z m84.5 -188.3 c112.9 -14 211.3 -74.2 273.6 -167.3 9.6 -14.3 16.4 -26.1 24.9 -43.4 4.2 -8.4 7.8 -15.5 8 -15.7 0.1 -0.2 3.9 1.5 8.4 3.7 15.8 8 31 11.9 49.1 12.8 10.8 0.5 11.6 0.4 13.8 -1.6 2.7 -2.7 2.9 -7.4 0.4 -9.9 -1.5 -1.5 -4.2 -2 -13.3 -2.6 -20.2 -1.2 -40 -7.8 -56 -18.7 -8.2 -5.5 -22.4 -19.7 -27.6 -27.4 -5.6 -8.3 -10.5 -18.5 -13.7 -28.3 -3.7 -10.9 -8.2 -14 -13.4 -9.2 -3 2.8 -2.8 6.2 0.9 16.7 5.9 16.8 14.2 30.3 26.2 43 l7 7.4 -2.2 4.7 c-11.8 24.4 -39.3 61.4 -64.1 86.3 -60.7 60.9 -135.8 97.6 -222.5 108.6 -19.4 2.4 -68.3 2.5 -87 0 -76.7 -10.1 -140.7 -38 -199 -86.6 -13.9 -11.6 -36.9 -35.2 -48.9 -50.1 -12.3 -15.3 -29.9 -41.4 -36.6 -54.2 l-4.5 -8.6 7.2 -7.5 c12 -12.7 20.2 -26.2 26.2 -43 3.7 -10.5 3.9 -13.9 0.9 -16.7 -5.3 -4.9 -9.7 -1.6 -13.9 10.5 -15.2 44.2 -55.6 73.2 -102.1 73.5 -4.4 0 -6.3 0.5 -7.8 2 -2.7 2.7 -2.6 7.4 0.3 10.1 2.1 2 2.9 2.1 13.7 1.6 18.1 -0.9 33.3 -4.8 49.1 -12.8 4.5 -2.2 8.3 -3.9 8.4 -3.7 0.2 0.2 3.8 7.3 8 15.7 19.7 39.9 42.1 71 73.4 102.1 63.9 63.4 147.9 102.2 238.1 110 15.2 1.3 60.2 0.4 75 -1.4z m140.1 -467.2 c28 -8.3 49.9 -41.6 57 -86.9 1.7 -10.3 1.7 -40.7 0 -51 -7.3 -45.7 -28.9 -78.5 -57 -86.9 -13 -3.8 -27.7 -1.1 -40.6 7.5 -44.1 29.5 -57.5 120.4 -26.3 178.9 13.7 25.7 32.7 39.8 53.9 39.9 4.2 0.1 9.9 -0.6 13 -1.5z"/>
 </g>
 <g fill="#f1f13f">
  <path d="M71.8 668.3 c-3.4 -1.4 -3.8 -1.9 -3.8 -5.2 0 -3.6 -0.2 -3.8 -7 -7.1 -4.9 -2.4 -7 -3.9 -7 -5.2 0 -1 -1.1 -2.4 -2.5 -3 -1.4 -0.6 -2.5 -2 -2.5 -3 0 -1 -1.3 -2.7 -3 -3.6 -1.6 -0.9 -3.1 -2.6 -3.2 -3.6 -0.2 -1.1 -2.3 -3.2 -4.8 -4.6 -4.1 -2.4 -4.6 -3.1 -5.3 -7.6 -1.5 -8.8 -1.9 -45.5 -0.8 -62.4 1.3 -17.9 4.2 -44.3 6.5 -58.4 3.1 -18.4 7.9 -39.8 9.2 -40.3 2.1 -0.8 15.4 11.6 15.4 14.2 0 2.8 10.5 11.3 27.3 22.3 l11.8 7.7 -0.5 5.6 c-0.5 5.3 -0.4 5.7 2.1 6.8 2.5 1.1 2.5 1.3 2 8.9 -0.3 4.2 -1.2 14 -2 21.7 -0.8 7.7 -1.8 18.4 -2.2 23.7 l-0.6 9.7 3.5 1.5 3.6 1.5 0 18 c0 9.9 0.3 18.7 0.7 19.7 0.5 1.4 0.2 1.6 -1.6 1.1 -1.8 -0.4 -2.1 -0.2 -1.6 1.4 0.6 1.9 0.5 1.9 -2.9 0.5 l-3.6 -1.5 0 5.1 c0 5.3 -0.2 5.4 -5 3.4 -1.2 -0.5 -1.4 0.3 -1.1 4.5 0.3 5.5 0.2 5.6 -5.1 3.4 -1.5 -0.6 -1.7 -0.1 -1.1 4.6 0.7 5.6 0.5 5.7 -4.9 3.4 -1.5 -0.6 -1.7 -0.1 -1.1 4.4 0.6 5.4 0 6.1 -3.9 4 -1.1 -0.6 -2.1 -0.9 -2.3 -0.7 -0.1 0.2 0.1 2.7 0.4 5.6 0.4 2.8 0.7 5.2 0.7 5.1 -0.1 -0.1 -1.8 -0.8 -3.8 -1.6z"/>
  <path d="M419.3 517.3 c-1.5 -0.3 -2.3 -1.2 -2.3 -2.5 0 -1.8 0.4 -2 3.1 -1.4 1.7 0.3 5.8 0.6 9 0.6 5.2 0 5.9 0.2 5.9 2 0 1.8 -0.6 2 -6.7 1.9 -3.8 -0.1 -7.8 -0.4 -9 -0.6z"/>
  <path d="M606.7 108.3 l-18.8 -0.3 -1.5 -3.6 -1.5 -3.5 -9.7 0.6 c-5.3 0.4 -16 1.4 -23.7 2.2 -7.7 0.8 -17.5 1.7 -21.7 2 -7.6 0.5 -7.8 0.5 -8.9 -2 -1.1 -2.5 -1.5 -2.6 -6.8 -2.1 l-5.6 0.5 -7.7 -11.8 c-11 -16.8 -19.5 -27.3 -22.3 -27.3 -1.5 0 -4.2 -2.3 -8.4 -6.9 -3.3 -3.8 -6.1 -7.4 -6.1 -7.9 0 -2.2 42.7 -10.5 70 -13.6 24.4 -2.8 45.2 -3.8 66 -3.3 11.3 0.3 22.7 0.9 25.4 1.4 4.5 0.7 5.2 1.2 7.6 5.3 1.4 2.5 3.5 4.6 4.6 4.8 1 0.1 2.7 1.6 3.6 3.2 0.9 1.7 2.6 3 3.6 3 1 0 2.4 1.1 3 2.5 0.6 1.4 2 2.5 3 2.5 1.3 0 2.8 2.1 5.2 7 3.3 6.8 3.5 7 7 7 3.3 0 3.8 0.4 5.2 3.8 l1.5 3.8 -5.1 -0.7 c-2.8 -0.3 -5.2 -0.5 -5.4 -0.4 -0.2 0.2 0.1 1.2 0.7 2.3 2.1 3.9 1.4 4.5 -4 3.9 -4.5 -0.6 -5 -0.4 -4.4 1.1 2.3 5.4 2.2 5.6 -3.4 4.9 -4.7 -0.6 -5.2 -0.4 -4.6 1.1 2.2 5.3 2.1 5.4 -3.4 5.1 -4.2 -0.3 -5 -0.1 -4.5 1.1 2 4.8 1.9 5 -3.4 5 l-5.1 0 1.5 3.6 c1.4 3.4 1.4 3.5 -0.5 2.9 -1.6 -0.5 -1.8 -0.2 -1.4 1.5 0.3 1.1 0.1 1.9 -0.3 1.8 -0.5 -0.2 -9.4 -0.4 -19.7 -0.5z"/>
 </g>
 <g fill="#fefe4b">
  <path d="M229.5 680.3 c-13.1 -0.7 -41.9 -4.3 -54.6 -6.9 -1.5 -0.3 -2.9 -1.3 -3.2 -2.3 -0.3 -1.2 -1.8 -2.1 -4.1 -2.5 -2.6 -0.5 -3.6 -1.2 -3.6 -2.5 0 -1.4 -1 -2 -3.7 -2.5 -2.1 -0.3 -5.5 -1.1 -7.5 -1.6 -3.4 -1 -3.8 -1.4 -3.8 -4.5 0 -3.1 -0.3 -3.5 -3.4 -4 -2.2 -0.5 -3.7 -1.5 -4.4 -3 -0.6 -1.4 -2.3 -2.6 -4.1 -3 -2.1 -0.4 -3.1 -1.3 -3.1 -2.6 0 -1.2 -1 -2.1 -3.2 -2.7 -2.2 -0.5 -3.4 -1.5 -3.6 -2.8 -0.2 -1.5 -2 -2.6 -7.3 -4.3 -5.2 -1.7 -7.2 -2.8 -7.9 -4.6 -0.5 -1.2 -2.2 -2.7 -3.9 -3.3 l-3.1 -1.1 0 -17.6 0 -17.6 -3.5 -1.5 c-3.2 -1.3 -3.5 -1.8 -3.5 -5.7 0 -7.2 1.9 -30.6 3.6 -44.6 1.8 -14.5 2 -13.5 -3 -16.6 -1.4 -0.8 -1.5 -1.8 -0.7 -6 0.8 -4 0.7 -5.2 -0.5 -5.8 -0.8 -0.4 -1.4 -1.9 -1.4 -3.2 0 -2.1 0.5 -2.5 3.3 -2.5 1.7 0 4.6 0.9 6.2 2 3.6 2.4 4.5 2.5 4.5 0.5 0 -1 1.1 -1.5 3.5 -1.5 2.4 0 3.5 -0.5 3.5 -1.5 0 -2 7.1 -2 11 0 2.8 1.5 3 1.4 3 -0.5 0 -1.6 0.7 -2 3.5 -2 2.1 0 3.7 -0.6 4.3 -1.6 0.7 -1.3 1.9 -1.6 5.3 -1.1 2.4 0.3 5.4 0.9 6.7 1.3 1.6 0.5 2.2 0.2 2.2 -1 0 -1.2 0.9 -1.6 3.4 -1.6 2.7 0 3.6 -0.5 4.1 -2.1 0.6 -1.9 1.3 -2.1 5.4 -1.6 2.5 0.2 5.4 0.8 6.4 1.2 1.4 0.6 2 0.2 2.4 -1.4 0.7 -2.9 5 -2.8 16.1 0.3 27.8 7.8 62.2 10.8 87.7 7.7 25.9 -3.2 56.9 -12 78.6 -22.3 16.7 -8 15.8 -7.9 20.2 -0.5 10.8 18.3 25.7 30.2 43.2 34.3 7 1.7 7.9 1.7 15.2 0.1 15.5 -3.4 27.3 -11.3 37.9 -25.4 27.2 -36.1 34.2 -96.5 16.9 -145 -2.3 -6.5 -2.9 -9.3 -2.1 -9.6 0.7 -0.3 2.7 -5.2 4.4 -11 13.2 -42.9 13.8 -88.4 1.6 -131.9 -3.1 -11.1 -3.2 -15.4 -0.3 -16.1 1.6 -0.4 2 -1 1.4 -2.4 -0.4 -1 -1 -3.9 -1.2 -6.4 -0.5 -4.1 -0.3 -4.8 1.6 -5.4 1.6 -0.5 2.1 -1.4 2.1 -4.1 0 -2.5 0.4 -3.4 1.6 -3.4 1.2 0 1.5 -0.6 1 -2.2 -0.4 -1.3 -1 -4.3 -1.3 -6.7 -0.5 -3.4 -0.2 -4.6 1.1 -5.3 1 -0.6 1.6 -2.2 1.6 -4.3 0 -2.8 0.4 -3.5 2 -3.5 1.9 0 2 -0.2 0.5 -3 -2 -3.9 -2 -11 0 -11 1 0 1.5 -1.1 1.5 -3.5 0 -2.4 0.5 -3.5 1.5 -3.5 2 0 1.9 -0.9 -0.5 -4.5 -1.1 -1.6 -2 -4.5 -2 -6.2 0 -2.8 0.4 -3.3 2.5 -3.3 1.3 0 2.8 0.6 3.2 1.4 0.6 1.2 1.8 1.3 5.8 0.5 5.2 -1 5.3 -1 8 3.6 1 1.7 1.8 1.7 14.5 0.1 14.1 -1.7 37.5 -3.6 44.7 -3.6 3.9 0 4.4 0.3 5.7 3.5 l1.5 3.5 17.6 0 17.6 0 1.1 3.1 c0.6 1.7 2.1 3.4 3.3 3.9 1.8 0.7 2.9 2.7 4.6 7.9 1.7 5.3 2.8 7.1 4.3 7.3 1.3 0.2 2.3 1.4 2.8 3.6 0.6 2.2 1.5 3.2 2.7 3.2 1.3 0 2.2 1 2.6 3.1 0.4 1.8 1.6 3.5 3 4.1 1.5 0.7 2.5 2.2 3 4.4 0.5 3.1 0.9 3.4 4 3.4 3.1 0 3.5 0.4 4.5 3.7 0.5 2.1 1.3 5.5 1.6 7.6 0.5 2.7 1.1 3.7 2.5 3.7 1.3 0 2 1 2.5 3.6 0.4 2.3 1.3 3.8 2.5 4.1 1.9 0.5 2.1 1.1 4.3 14.8 4 23.8 5 37.9 5 67.5 0 39.1 -3.2 66.2 -12 102 -40.9 165.3 -176.4 290.7 -344.6 319 -9.9 1.6 -18.4 3 -18.9 3 -0.5 0 -0.7 -1.1 -0.3 -2.4 0.4 -1.9 0.1 -2.6 -1.5 -3.1 -1.2 -0.3 -2.1 -1.5 -2.1 -2.6 0 -1 -0.7 -1.9 -1.5 -1.9 -0.8 0 -1.5 0.4 -1.5 0.9 0 0.5 -0.9 1.1 -2 1.4 -1.3 0.3 -2 0 -2 -0.9 0 -0.8 -0.6 -1.1 -1.5 -0.8 -1.2 0.5 -1.3 1 -0.4 2 1.2 1.5 0.7 1.8 -2.6 1.4 l-2 -0.2 2 1.6 c2 1.5 2 1.5 -0.2 0.9 -2.7 -0.6 -3 0.5 -0.5 2.3 1.5 1.2 1.5 1.2 -0.5 0.7 -1.4 -0.3 -2.3 -0.1 -2.3 0.6 0 0.6 0.6 1.2 1.3 1.3 0.6 0 -2.6 0.4 -7.3 0.9 -8.3 0.7 -38.6 0.8 -50.5 0.2z"/>
 </g>
 <g fill="#f7f767">
  <path d="M105 511.5 c-4.1 -2.5 -5.6 -3 -5.8 -1.9 -0.2 0.8 -0.6 1.4 -1 1.4 -1.2 0 -23 -15.1 -30.9 -21.5 -5.9 -4.7 -8 -7 -7.6 -8.2 0.4 -1.1 -1.5 -3.5 -6.6 -8.2 l-7.2 -6.6 4 -14.7 c8.1 -29.6 18 -57.3 30.8 -86 7.2 -16.3 8.5 -17.5 12.3 -11.3 1.2 2 3 3.5 4.1 3.5 1 0 2.8 1.3 4 2.9 1.6 2.2 3.3 3.1 6.6 3.6 3.4 0.5 5.2 1.5 7.2 3.8 7.7 9.5 14.5 15.7 17.1 15.7 1.6 0 3.7 1.1 5.5 3 1.9 2 3.9 3 5.8 3 1.5 0 4.3 1.1 6.1 2.5 1.8 1.4 4.4 2.5 5.8 2.5 1.4 0 6.6 2.5 11.6 5.5 7.1 4.3 10.1 5.5 13.2 5.5 2.3 0 5.1 0.5 6.3 1.2 1.2 0.6 4.1 1 6.4 0.9 2.4 -0.1 5.2 0.3 6.3 0.9 1.2 0.6 5.1 1.2 8.8 1.4 3.7 0.1 11.4 1.3 17.2 2.6 9.1 2.1 13 2.4 29 2.4 15.3 0 20.2 -0.4 28.7 -2.2 21.9 -4.8 41.9 -13.1 59.5 -24.8 5.3 -3.5 10.9 -6.7 12.5 -7 l2.8 -0.6 0 18.4 c0.1 10.1 0.7 21.9 1.4 26.3 2.7 17.1 8.5 35.5 15.2 48.6 l2.1 4.2 -2.1 -0.6 c-1.4 -0.3 -6.1 1.4 -13.4 4.8 -51.5 24.5 -111.7 30.4 -166.7 16.5 -6.3 -1.7 -12.5 -3.2 -13.7 -3.6 -1.7 -0.5 -2.2 -0.1 -2.8 2.5 -0.4 1.7 -0.8 3.1 -0.9 3.1 -0.2 0 -2.9 -0.9 -6.1 -2 -6.2 -2.1 -7.5 -1.7 -7.5 2.4 0 1.3 -0.5 1.6 -1.7 1.1 -4.4 -1.8 -5 -1.6 -5.9 1.4 l-0.9 3 -5.9 -2.5 c-6.1 -2.7 -7.5 -2.3 -7.6 1.8 0 1.6 -0.3 1.6 -3.5 0.2 -3.4 -1.4 -3.5 -1.4 -3.5 1 0 3.7 -1.4 3.9 -6.9 1.1 -6.3 -3.1 -7.1 -3.1 -7.1 0.1 0 2.7 -0.7 2.8 -5.2 0.9 -1.2 -0.5 -1.8 0.1 -2.3 2.4 -0.4 1.7 -1 3.1 -1.3 3 -0.4 0 -3.2 -1.6 -6.2 -3.4z"/>
  <path d="M492.3 347.3 c-1.9 -5.9 -7.7 -18.4 -11.4 -24.9 -7.9 -13.7 -19.4 -25.5 -30.4 -31.2 -10.1 -5.1 -24.2 -6.7 -33.8 -3.8 -4.7 1.4 -4.7 1.4 -4.7 -1 0 -1.3 0.4 -2.4 0.8 -2.4 0.5 0 1.5 -5.8 2.2 -12.9 1.6 -15.9 0.8 -33.1 -2.1 -46.1 -1.2 -5.2 -2.3 -12.8 -2.5 -16.7 -0.2 -4 -0.8 -8.2 -1.4 -9.3 -0.6 -1.1 -1 -3.9 -0.9 -6.3 0.1 -2.3 -0.3 -5.2 -0.9 -6.4 -0.7 -1.2 -1.2 -4 -1.2 -6.3 0 -3.1 -1.2 -6.1 -5.5 -13.2 -3 -5 -5.5 -10.2 -5.5 -11.6 0 -1.4 -1.1 -4 -2.5 -5.8 -1.4 -1.8 -2.5 -4.6 -2.5 -6.1 0 -1.9 -1 -3.9 -3 -5.8 -1.9 -1.8 -3 -3.9 -3 -5.5 0 -2.6 -6.2 -9.4 -15.7 -17.1 -2.3 -2 -3.3 -3.8 -3.8 -7.2 -0.5 -3.3 -1.4 -5 -3.6 -6.6 -1.6 -1.2 -2.9 -3 -2.9 -4 0 -1.1 -1.5 -2.9 -3.5 -4.1 -5.1 -3.2 -4.5 -5.2 2.3 -8 3.1 -1.3 9.9 -4.3 14.9 -6.7 5.1 -2.4 11.3 -5 13.7 -5.8 2.3 -0.8 6.1 -2.2 8.2 -3.2 2.1 -0.9 4.4 -1.7 4.9 -1.9 0.6 -0.1 4.6 -1.6 9 -3.3 9.8 -4 41.3 -13.5 51.9 -15.8 l7.9 -1.7 6.2 6.9 c4.4 4.8 6.7 6.6 7.8 6.2 1.2 -0.4 3.4 1.6 8.2 7.6 6.4 7.9 21.5 29.7 21.5 30.9 0 0.4 -0.6 0.8 -1.4 1 -1.1 0.2 -0.6 1.7 2 6.1 1.9 3.2 3.4 6 3.4 6.2 0 0.2 -1.4 0.6 -3.1 1 -2.3 0.5 -2.9 1.1 -2.4 2.3 1.9 4.5 1.8 5.2 -0.9 5.2 -3.2 0 -3.2 0.8 -0.1 7.1 2.8 5.5 2.6 6.9 -1.1 6.9 -2.4 0 -2.4 0.1 -1 3.5 1.4 3.2 1.4 3.5 -0.2 3.5 -4.1 0.1 -4.5 1.5 -1.8 7.6 l2.5 5.9 -3 0.9 c-3 0.9 -3.2 1.5 -1.4 5.8 0.5 1.3 0.2 1.8 -1.1 1.8 -4.1 0 -4.5 1.3 -2.4 7.5 1.1 3.2 2 5.9 2 6.1 0 0.1 -1.4 0.5 -3.1 0.9 -2.6 0.6 -3 1.1 -2.5 2.8 15 53.1 14.7 101.2 -0.9 149.5 -3.4 10.5 -3.5 11.1 -2 15.1 0.8 2.2 1.2 4.1 0.9 4.1 -0.2 0 -0.7 -0.8 -1.1 -1.7z"/>
 </g>
 <g fill="#f8f890">
  <path d="M229.9 417.5 c-4.8 -0.8 -11.4 -2.1 -14.7 -2.9 -7.4 -2 -8.2 -2 -8.2 -0.2 0 1.4 -3.8 0.5 -12.2 -2.9 -1.3 -0.5 -1.8 -0.2 -1.8 1 0 1.9 -2.1 1.5 -8.4 -1.7 -3.6 -1.8 -4.1 -1.9 -5.1 -0.5 -1 1.4 -2.4 0.9 -11.5 -4.3 -5.6 -3.3 -10.9 -6.5 -11.6 -7 -0.9 -0.8 -1.5 -0.7 -2.1 0.4 -0.7 1.2 -1.8 0.8 -6.2 -2.6 -4 -3.1 -5.5 -3.7 -6.1 -2.7 -1 1.4 -1.9 0.9 -7.8 -4.5 -2.7 -2.6 -3.4 -2.8 -4.2 -1.6 -0.8 1.2 -1.7 0.8 -5.1 -2.5 -2.3 -2.2 -6.7 -7 -9.9 -10.7 -4.6 -5.3 -6 -6.3 -6.5 -5 -0.6 1.5 -0.9 1.4 -2.6 -0.7 -1.7 -2 -2.2 -2.2 -2.9 -1.1 -0.5 0.8 -1 1.2 -1.2 1 -5.7 -7.7 -6.1 -8.1 -6.9 -6.9 -1 1.5 -1 1.5 -4.7 -4.4 -1.3 -2 -2.5 -3.7 -2.8 -3.7 -0.2 0 -1.2 1.7 -2.3 3.8 -1.1 2 -2 3.4 -2.1 2.9 0 -1.2 15.2 -31.1 21.5 -42.2 3.1 -5.5 6.3 -11.4 7 -13.2 3.6 -8.6 27.7 -43.4 44.4 -64.3 29.5 -36.8 70.2 -75.5 109.1 -103.7 16.2 -11.7 42.3 -28.4 43.7 -27.9 0.8 0.3 1.1 0.2 0.8 -0.4 -0.3 -0.5 0.3 -0.8 1.3 -0.7 0.9 0 6.9 -2.8 13.2 -6.3 15.7 -8.8 29.3 -15.9 30.3 -16 0.5 0 0.6 0.4 0.3 0.9 -0.4 0.5 1 2 3.1 3.3 5.9 3.7 5.9 3.7 4.4 4.7 -1.2 0.8 -0.8 1.2 6.9 6.9 0.2 0.2 -0.2 0.7 -1 1.2 -1.1 0.7 -0.9 1.2 1.1 2.9 2.1 1.7 2.2 2 0.7 2.6 -1.3 0.5 -0.3 1.9 5 6.5 3.7 3.2 8.5 7.6 10.7 9.9 3.3 3.4 3.7 4.3 2.5 5.1 -1.2 0.8 -1 1.5 1.6 4.2 5.4 5.9 5.9 6.8 4.5 7.8 -1 0.6 -0.4 2.1 2.7 6.1 3.4 4.4 3.8 5.5 2.6 6.2 -1.1 0.6 -1.2 1.2 -0.4 2.1 0.5 0.7 3.7 6 7 11.6 5.2 9.1 5.7 10.5 4.3 11.5 -1.4 1 -1.3 1.5 0.5 5.1 3.2 6.3 3.6 8.4 1.7 8.4 -1.2 0 -1.5 0.5 -1 1.7 0.4 1 1.5 4.2 2.5 7.1 1.7 4.6 1.7 5.2 0.3 5.2 -1.2 0 -1.4 0.7 -0.9 2.8 0.3 1.5 1.5 7 2.6 12.2 2.8 12.4 3.8 38 2 51.6 -0.9 7.1 -0.9 9.9 -0.1 10.2 1.7 0.6 1.3 3.2 -0.4 3.2 -0.9 0 -4.3 1.3 -7.8 2.9 -25.8 11.8 -45.1 44.2 -50.8 85.4 -0.9 6.4 -1.7 9 -2.8 9.5 -0.9 0.3 -5.9 3.4 -11.1 6.8 -17.4 11.5 -37.6 19.9 -58.8 24.5 -12.7 2.7 -43.5 3.5 -56.3 1.4z m37.8 -114 c17.6 -6 29.8 -18.2 35.8 -35.8 3.3 -10 3.3 -17.9 -0.1 -27.2 -1.4 -3.8 -2.8 -9.1 -3.1 -11.7 -0.4 -3.9 -1.3 -5.6 -5.9 -10.6 -3 -3.3 -8.3 -7.9 -11.9 -10.1 -6.7 -4.3 -19.5 -9.1 -23.9 -9.1 -2 0 -2.6 -0.5 -2.6 -2.1 0 -1.9 -0.4 -2 -5.2 -1.4 -13.9 1.9 -25.3 7.3 -35.4 16.7 -11.1 10.4 -17.9 23.5 -19.9 38.6 -0.6 4.8 -0.5 5.2 1.4 5.2 1.6 0 2.1 0.6 2.1 2.6 0 4.4 4.8 17.2 9.1 23.9 2.2 3.6 6.8 8.9 10.1 11.9 5 4.6 6.7 5.5 10.6 5.9 2.6 0.3 7.9 1.7 11.7 3.1 9.3 3.4 17.2 3.4 27.2 0.1z"/>
  <path d="M423 284.5 c0 -1.7 0.2 -1.8 2.4 -0.9 2.3 0.9 2 2.4 -0.4 2.4 -1.1 0 -2 -0.7 -2 -1.5z"/>
 </g>
 <g fill="#fcfca7">
  <path d="M246.7 308.9 c-3.1 -0.5 -8.4 -1.9 -11.7 -3.2 -4.8 -2 -6.2 -2.2 -7 -1.1 -0.9 1 -1.8 0.9 -4.6 -0.8 -6.1 -3.6 -14.1 -11.6 -18.3 -18.3 -4.3 -6.8 -9.1 -19.5 -9.1 -24 0 -2.3 -0.2 -2.6 -1.5 -1.5 -2.2 1.9 -2.9 -0.9 -2.2 -9.5 1.4 -16.1 8.2 -30.2 20.1 -41.3 10.9 -10.1 23.2 -15.6 38.2 -16.9 8.5 -0.7 11.3 0 9.4 2.2 -1.1 1.3 -0.8 1.5 1.5 1.5 4.5 0 17.2 4.8 24 9.1 6.7 4.2 14.7 12.2 18.3 18.3 1.7 2.8 1.8 3.7 0.8 4.6 -1.1 0.8 -0.9 2.1 1 6.9 9.5 23.4 0 51.5 -22.1 65.6 -10.5 6.7 -25.1 10.1 -36.8 8.4z"/>
  <path d="M111.4 305.6 c0.8 -1.9 5 -9 9.3 -15.8 35.7 -55.8 82.8 -106.2 138.8 -148.5 9 -6.7 42.4 -29.1 47.3 -31.7 3.7 -1.9 4.2 -2 4.2 -0.4 0 0.6 -0.3 0.9 -0.6 0.5 -0.3 -0.3 -1.3 0.1 -2.2 0.9 -0.9 0.9 -10 6.9 -20.2 13.6 -33 21.6 -55.6 39.7 -84.4 67.8 -25.5 25 -39.7 41.1 -61.2 69.5 -5.3 7 -24 34.3 -25.4 37 -1.4 2.8 -6.2 10.5 -6.6 10.5 -0.2 0 0.2 -1.5 1 -3.4z"/>
 </g>
</svg>